<svg xmlns="http://www.w3.org/2000/svg" viewBox="-41.38 -16.378 148 148">
    <path fill="#2740e0" fill-rule="nonzero" d="M0,115.244C-10.292,115.244 -17.56,113.433 -18.181,113.299L-27.42,110.922L25.718,59.378L-12.643,22.044C-12.697,24.448 -12.67,27.23 -12.454,30.257C-11.751,40.333 -8.834,55.596 0.972,70.967C2.566,73.452 1.837,76.775 -0.648,78.369C-3.134,79.963 -6.457,79.233 -8.05,76.748C-19.18,59.324 -22.395,42.035 -23.151,30.581C-23.962,18.099 -22.125,9.698 -22.044,9.348L-19.937,0L41.089,59.405L-5.268,104.357C-3.458,104.465 -1.486,104.546 0.648,104.519C9.131,104.438 21.638,102.898 33.12,95.929C47.275,87.338 56.946,72.426 61.863,51.652L62.295,49.842L76.64,38.469C75.613,37.415 74.397,36.173 73.047,34.767C67.995,29.581 61.404,29.5 56.946,31.175C51.192,33.309 47.545,38.225 47.194,44.331C47.005,47.275 44.466,49.517 41.521,49.355C38.577,49.167 36.334,46.654 36.497,43.682C37.118,33.39 43.52,24.746 53.191,21.126C62.917,17.506 73.452,19.856 80.692,27.285C84.825,31.526 87.5,34.227 88.418,35.146L92.659,39.388L71.831,55.893C66.077,78.693 54.893,95.226 38.549,105.087C25.177,113.245 10.887,115.244 0,115.244Z"/>
</svg>
